# xmcd
#
# Track frame offsets:
#	150
#	12216
#	21857
#	40539
#	52312
#	67958
#	79382
#	95837
#	107233
#	122475
#	134637
#
# Disc length: 2041 seconds
#
# Revision: 0
# Processed by: cddbd v1.5.1PL2 Copyright (c) Steve Scherf et al.
# Submitted via: EasyCDDAExtractor 8.2.3.1
#
DISCID=9707f70b
DTITLE=Sara Evans - Three Chords And The Truth 
DYEAR=1900
DGENRE=
TTITLE0=True Lies
TTITLE1=Shame About That
TTITLE2=Three Chords And The Truth
TTITLE3=If You Ever Want My Lovin'
TTITLE4=Even Now
TTITLE5=Imagine That
TTITLE6=I Don't Wanna See The Light
TTITLE7=I've Got A Tiger By The Tail
TTITLE8=Unopened
TTITLE9=Walk Out Backwards
TTITLE10=The Week The River Raged
EXTD=
EXTT0=
EXTT1=
EXTT2=
EXTT3=
EXTT4=
EXTT5=
EXTT6=
EXTT7=
EXTT8=
EXTT9=
EXTT10=
PLAYORDER=
